<?xml version="1.0" encoding="utf-8"?>
<!-- Generator: Adobe Illustrator 22.0.1, SVG Export Plug-In . SVG Version: 6.00 Build 0)  -->
<svg version="1.1" id="Layer_1" xmlns="http://www.w3.org/2000/svg" xmlns:xlink="http://www.w3.org/1999/xlink" x="0px" y="0px"
	 viewBox="0 0 800 800" style="enable-background:new 0 0 800 800;" xml:space="preserve">
<style type="text/css">
	.st0{fill:#219261;}
	.st1{fill:#FFFFFF;}
	.st2{enable-background:new    ;}
	.st3{fill:none;stroke:#219261;stroke-miterlimit:10;}
	.st4{fill:none;stroke:#000000;stroke-miterlimit:10;}
</style>
<path id="Oval-1_1_" class="st0" d="M400,574c151.6,0,274.5-122.9,274.5-274.5S551.6,25,400,25S125.5,147.9,125.5,299.5
	S248.4,574,400,574z"/>
<path id="Fill-5" class="st1" d="M418.9,280.6c-5.1-0.8-21.7-3.8-35.7-4.1c2.3-28.5,6.1-61.2,12.7-95.8c3.2-0.3,6.5-0.5,9.9-0.5
	c28.7,0,48,18.9,48.3,45.5C454.5,259.3,418.9,280.6,418.9,280.6L418.9,280.6z M327.5,360.9c-12.3,2-24.6-17.6-24.6-52
	c0-32.7,11.6-73.7,37.2-100.5C325.5,269.8,346.9,357.7,327.5,360.9L327.5,360.9z M541.9,354.1c-9.1-55.9-75.9-63.6-75.9-63.6
	c15.6-6.1,46.4-34,47.9-66.4c2-42.6-36.1-82.4-103.7-82.4c-84,0-148.1,62.8-153.3,154.1c-0.8,14.6,0.7,53.9,15.3,82.7
	c17.2,39.7,46.3,68,76.1,61.5c26.2-5.7,32.4-30.1,32.4-58.6c0-4.3-1.6-34.9,0.8-80c2.1,5.3,5.5,10.2,10.2,13.2
	c13.5,3.7,27.9-1.2,38.9-7c0,0,36.9,9.8,36.9,38.1c0,16-13.2,27.9-29.5,29.1c-22.1,1.6-36.1-9-36.1-9c-7,1.2-17.6,15.6-17.6,26.6
	c0,23.4,28.7,55.3,83.2,51.6C510.9,441.2,550.9,408.8,541.9,354.1z"/>
<g class="st2">
	<path class="st0" d="M122.2,668.7v-59.1c0-2.3,0.6-4.1,1.9-5.6c1.3-1.4,3-2.1,5.1-2.1c1.4,0,2.6,0.3,3.7,1c1.1,0.6,1.9,1.5,2.5,2.7
		c0.6,1.2,0.9,2.5,0.9,4v18.8c1.8-1.5,3.9-2.7,6.2-3.5c2.4-0.8,4.8-1.2,7.2-1.2c4.8,0,9,1.3,12.4,3.9c3.4,2.6,6,6,7.8,10.2
		c1.8,4.2,2.6,8.6,2.6,13.3c0,4.4-1,8.6-2.9,12.6c-1.9,4-4.7,7.3-8.3,9.7c-3.6,2.5-7.6,3.7-12.2,3.7c-2.6,0-5.1-0.6-7.5-1.7
		c-2.4-1.1-4.2-2.7-5.5-4.7c-1,3.8-3.3,5.7-7.1,5.7c-2.1,0-3.8-0.7-5.1-2.1C122.9,672.8,122.2,670.9,122.2,668.7z M136.4,649.9
		c0,3.7,1,7.1,2.9,10c1.9,2.9,4.7,4.4,8.2,4.4c2.3,0,4.3-0.7,6-2.1c1.7-1.4,3-3.1,3.8-5.2c0.8-2.1,1.2-4.3,1.2-6.6
		c0-2.3-0.4-4.6-1.2-6.7c-0.8-2.2-2.1-3.9-3.8-5.3s-3.7-2.1-6-2.1c-2.4,0-4.4,0.7-6.1,2s-2.9,3-3.7,5
		C136.8,645.3,136.4,647.5,136.4,649.9z"/>
	<path class="st0" d="M221.4,654.9h-30.2c0.5,3.3,2,5.8,4.4,7.5c2.5,1.7,5.4,2.5,8.9,2.5c2.1,0,4-0.3,5.5-1c1.5-0.7,3.4-1.6,5.6-2.8
		c2.3-1.2,3.9-1.8,4.9-1.8c1,0,1.9,0.3,2.8,0.9c0.9,0.6,1.6,1.3,2.2,2.2c0.5,0.9,0.8,1.9,0.8,2.9c0,1.4-0.7,2.9-2,4.3
		c-1.4,1.4-3.2,2.7-5.4,3.8c-2.3,1.1-4.8,2-7.6,2.7c-2.8,0.7-5.5,1-8.1,1c-5.2,0-9.8-1.1-13.8-3.4c-4.1-2.3-7.2-5.5-9.4-9.5
		c-2.2-4-3.3-8.6-3.3-13.7c0-3.4,0.6-6.8,1.9-10c1.3-3.3,3-6.1,5.3-8.7s5-4.5,8.1-5.9c3.2-1.4,6.5-2.1,10.1-2.1
		c3.7,0,7.1,0.7,10.3,2.2c3.2,1.5,5.9,3.4,8.1,5.9c2.2,2.4,3.9,5.2,5.2,8.1c1.2,3,1.9,5.9,1.9,8.9
		C227.6,652.8,225.5,654.9,221.4,654.9z M190.9,645.6h22.5c-0.4-3.2-1.6-5.7-3.6-7.6c-2-1.9-4.6-2.9-7.7-2.9c-3,0-5.6,1-7.6,3
		C192.5,640,191.3,642.5,190.9,645.6z"/>
	<path class="st0" d="M282,633.2v34.2c0,2.7-0.4,4.9-1.2,6.5c-0.8,1.7-2.7,2.5-5.7,2.5c-1.9,0-3.4-0.5-4.4-1.5c-1-1-1.8-2.4-2.3-4.4
		c-3.7,4.3-8.3,6.4-13.5,6.4c-4.4,0-8.3-1.1-11.9-3.4c-3.6-2.3-6.4-5.4-8.4-9.5c-2-4-3.1-8.6-3.1-13.7c0-4.9,1-9.4,3.1-13.5
		c2.1-4.1,4.9-7.3,8.5-9.7c3.6-2.4,7.5-3.5,11.8-3.5c2.7,0,5.2,0.5,7.6,1.6c2.4,1.1,4.4,2.6,5.9,4.7c0.2-1.7,0.9-3.1,2.2-4.1
		c1.3-1.1,2.8-1.6,4.5-1.6c3,0,4.9,0.8,5.7,2.5C281.7,628.3,282,630.5,282,633.2z M245.7,650.3c0,2.3,0.4,4.6,1.3,6.7
		c0.8,2.1,2.1,3.9,3.8,5.2c1.7,1.3,3.7,2,6.1,2c3.5,0,6.2-1.4,8.1-4.2c1.9-2.8,2.9-6.1,2.9-9.7c0-2.3-0.4-4.6-1.2-6.7
		c-0.8-2.2-2.1-4-3.7-5.3c-1.7-1.4-3.7-2.1-6-2.1c-2.4,0-4.4,0.7-6.1,2c-1.7,1.4-3,3.1-3.8,5.3C246.1,645.8,245.7,648,245.7,650.3z"
		/>
	<path class="st0" d="M291.1,668.7v-36.9c0-2.3,0.6-4.1,1.9-5.6c1.3-1.4,3-2.1,5.1-2.1c1.8,0,3.3,0.5,4.4,1.4
		c1.1,0.9,1.8,2.2,2.1,3.8c2.8-3.8,7.3-5.7,13.6-5.7c3.7,0,7,0.7,10,2.2c2.9,1.5,5.3,3.6,6.9,6.4c1.7,2.8,2.5,6.1,2.5,10v26.5
		c0,1.5-0.3,2.8-0.9,4c-0.6,1.2-1.5,2.1-2.5,2.7c-1.1,0.6-2.3,1-3.7,1c-2.1,0-3.8-0.7-5.1-2.1c-1.3-1.4-1.9-3.3-1.9-5.6v-24.1
		c0-3.1-0.9-5.4-2.6-7.1c-1.7-1.6-3.9-2.4-6.7-2.4c-1.9,0-3.5,0.4-4.9,1.2c-1.4,0.8-2.4,1.9-3.1,3.4c-0.7,1.4-1.1,3-1.1,4.9v24.1
		c0,1.5-0.3,2.8-0.9,4c-0.6,1.2-1.5,2.1-2.5,2.7c-1.1,0.6-2.3,1-3.7,1c-2.1,0-3.8-0.7-5.1-2.1C291.8,672.8,291.1,670.9,291.1,668.7z
		"/>
	<path class="st0" d="M382.4,633.5c0,1.6-0.6,3-1.7,4.3s-2.5,1.9-4.1,1.9c-0.7,0-2.1-0.5-4.2-1.4c-2.1-0.9-3.7-1.6-4.8-2
		c-1.1-0.4-2.4-0.7-3.7-0.7c-1.4,0-2.5,0.3-3.4,1c-0.9,0.7-1.4,1.6-1.4,2.9c0,1.3,1.4,2.6,4.2,3.8c2.8,1.2,5.8,2.4,9,3.7
		c3.2,1.3,5.8,3,8.1,5.1c2.2,2.1,3.3,5,3.3,8.6c0,3.1-0.8,5.9-2.5,8.3c-1.7,2.5-4,4.4-7.1,5.8c-3.1,1.4-6.6,2.1-10.5,2.1
		c-2.8,0-5.7-0.5-8.8-1.4c-3.1-0.9-5.7-2.2-7.8-3.9s-3.2-3.5-3.2-5.4c0-1.2,0.6-2.6,1.7-4c1.1-1.4,2.6-2.1,4.4-2.1
		c1.3,0,2.4,0.2,3.4,0.6c1,0.4,2.2,1,3.6,1.8c1.5,0.8,2.7,1.4,3.8,1.8c1.1,0.4,2.4,0.6,3.9,0.6c2.1,0,3.5-0.3,4.3-1
		c0.8-0.6,1.2-1.6,1.2-3c0-1.3-1.4-2.6-4.1-3.8c-2.7-1.2-5.7-2.4-9-3.7c-3.3-1.3-6-3-8.2-5.2s-3.3-5-3.3-8.6c0-3.2,0.8-6,2.5-8.4
		c1.6-2.4,3.9-4.3,6.8-5.7c2.9-1.4,6.2-2,9.9-2c2.6,0,5.3,0.4,8,1.1c2.7,0.8,5,1.9,6.9,3.4C381.5,629.6,382.4,631.4,382.4,633.5z"/>
</g>
<g class="st2">
	<path class="st3" d="M122.2,668.7v-59.1c0-2.3,0.6-4.1,1.9-5.6c1.3-1.4,3-2.1,5.1-2.1c1.4,0,2.6,0.3,3.7,1c1.1,0.6,1.9,1.5,2.5,2.7
		c0.6,1.2,0.9,2.5,0.9,4v18.8c1.8-1.5,3.9-2.7,6.2-3.5c2.4-0.8,4.8-1.2,7.2-1.2c4.8,0,9,1.3,12.4,3.9c3.4,2.6,6,6,7.8,10.2
		c1.8,4.2,2.6,8.6,2.6,13.3c0,4.4-1,8.6-2.9,12.6c-1.9,4-4.7,7.3-8.3,9.7c-3.6,2.5-7.6,3.7-12.2,3.7c-2.6,0-5.1-0.6-7.5-1.7
		c-2.4-1.1-4.2-2.7-5.5-4.7c-1,3.8-3.3,5.7-7.1,5.7c-2.1,0-3.8-0.7-5.1-2.1C122.9,672.8,122.2,670.9,122.2,668.7z M136.4,649.9
		c0,3.7,1,7.1,2.9,10c1.9,2.9,4.7,4.4,8.2,4.4c2.3,0,4.3-0.7,6-2.1c1.7-1.4,3-3.1,3.8-5.2c0.8-2.1,1.2-4.3,1.2-6.6
		c0-2.3-0.4-4.6-1.2-6.7c-0.8-2.2-2.1-3.9-3.8-5.3s-3.7-2.1-6-2.1c-2.4,0-4.4,0.7-6.1,2s-2.9,3-3.7,5
		C136.8,645.3,136.4,647.5,136.4,649.9z"/>
	<path class="st3" d="M221.4,654.9h-30.2c0.5,3.3,2,5.8,4.4,7.5c2.5,1.7,5.4,2.5,8.9,2.5c2.1,0,4-0.3,5.5-1c1.5-0.7,3.4-1.6,5.6-2.8
		c2.3-1.2,3.9-1.8,4.9-1.8c1,0,1.9,0.3,2.8,0.9c0.9,0.6,1.6,1.3,2.2,2.2c0.5,0.9,0.8,1.9,0.8,2.9c0,1.4-0.7,2.9-2,4.3
		c-1.4,1.4-3.2,2.7-5.4,3.8c-2.3,1.1-4.8,2-7.6,2.7c-2.8,0.7-5.5,1-8.1,1c-5.2,0-9.8-1.1-13.8-3.4c-4.1-2.3-7.2-5.5-9.4-9.5
		c-2.2-4-3.3-8.6-3.3-13.7c0-3.4,0.6-6.8,1.9-10c1.3-3.3,3-6.1,5.3-8.7s5-4.5,8.1-5.9c3.2-1.4,6.5-2.1,10.1-2.1
		c3.7,0,7.1,0.7,10.3,2.2c3.2,1.5,5.9,3.4,8.1,5.9c2.2,2.4,3.9,5.2,5.2,8.1c1.2,3,1.9,5.9,1.9,8.9
		C227.6,652.8,225.5,654.9,221.4,654.9z M190.9,645.6h22.5c-0.4-3.2-1.6-5.7-3.6-7.6c-2-1.9-4.6-2.9-7.7-2.9c-3,0-5.6,1-7.6,3
		C192.5,640,191.3,642.5,190.9,645.6z"/>
	<path class="st3" d="M282,633.2v34.2c0,2.7-0.4,4.9-1.2,6.5c-0.8,1.7-2.7,2.5-5.7,2.5c-1.9,0-3.4-0.5-4.4-1.5c-1-1-1.8-2.4-2.3-4.4
		c-3.7,4.3-8.3,6.4-13.5,6.4c-4.4,0-8.3-1.1-11.9-3.4c-3.6-2.3-6.4-5.4-8.4-9.5c-2-4-3.1-8.6-3.1-13.7c0-4.9,1-9.4,3.1-13.5
		c2.1-4.1,4.9-7.3,8.5-9.7c3.6-2.4,7.5-3.5,11.8-3.5c2.7,0,5.2,0.5,7.6,1.6c2.4,1.1,4.4,2.6,5.9,4.7c0.2-1.7,0.9-3.1,2.2-4.1
		c1.3-1.1,2.8-1.6,4.5-1.6c3,0,4.9,0.8,5.7,2.5C281.7,628.3,282,630.5,282,633.2z M245.7,650.3c0,2.3,0.4,4.6,1.3,6.7
		c0.8,2.1,2.1,3.9,3.8,5.2c1.7,1.3,3.7,2,6.1,2c3.5,0,6.2-1.4,8.1-4.2c1.9-2.8,2.9-6.1,2.9-9.7c0-2.3-0.4-4.6-1.2-6.7
		c-0.8-2.2-2.1-4-3.7-5.3c-1.7-1.4-3.7-2.1-6-2.1c-2.4,0-4.4,0.7-6.1,2c-1.7,1.4-3,3.1-3.8,5.3C246.1,645.8,245.7,648,245.7,650.3z"
		/>
	<path class="st3" d="M291.1,668.7v-36.9c0-2.3,0.6-4.1,1.9-5.6c1.3-1.4,3-2.1,5.1-2.1c1.8,0,3.3,0.5,4.4,1.4
		c1.1,0.9,1.8,2.2,2.1,3.8c2.8-3.8,7.3-5.7,13.6-5.7c3.7,0,7,0.7,10,2.2c2.9,1.5,5.3,3.6,6.9,6.4c1.7,2.8,2.5,6.1,2.5,10v26.5
		c0,1.5-0.3,2.8-0.9,4c-0.6,1.2-1.5,2.1-2.5,2.7c-1.1,0.6-2.3,1-3.7,1c-2.1,0-3.8-0.7-5.1-2.1c-1.3-1.4-1.9-3.3-1.9-5.6v-24.1
		c0-3.1-0.9-5.4-2.6-7.1c-1.7-1.6-3.9-2.4-6.7-2.4c-1.9,0-3.5,0.4-4.9,1.2c-1.4,0.8-2.4,1.9-3.1,3.4c-0.7,1.4-1.1,3-1.1,4.9v24.1
		c0,1.5-0.3,2.8-0.9,4c-0.6,1.2-1.5,2.1-2.5,2.7c-1.1,0.6-2.3,1-3.7,1c-2.1,0-3.8-0.7-5.1-2.1C291.8,672.8,291.1,670.9,291.1,668.7z
		"/>
	<path class="st3" d="M382.4,633.5c0,1.6-0.6,3-1.7,4.3s-2.5,1.9-4.1,1.9c-0.7,0-2.1-0.5-4.2-1.4c-2.1-0.9-3.7-1.6-4.8-2
		c-1.1-0.4-2.4-0.7-3.7-0.7c-1.4,0-2.5,0.3-3.4,1c-0.9,0.7-1.4,1.6-1.4,2.9c0,1.3,1.4,2.6,4.2,3.8c2.8,1.2,5.8,2.4,9,3.7
		c3.2,1.3,5.8,3,8.1,5.1c2.2,2.1,3.3,5,3.3,8.6c0,3.1-0.8,5.9-2.5,8.3c-1.7,2.5-4,4.4-7.1,5.8c-3.1,1.4-6.6,2.1-10.5,2.1
		c-2.8,0-5.7-0.5-8.8-1.4c-3.1-0.9-5.7-2.2-7.8-3.9s-3.2-3.5-3.2-5.4c0-1.2,0.6-2.6,1.7-4c1.1-1.4,2.6-2.1,4.4-2.1
		c1.3,0,2.4,0.2,3.4,0.6c1,0.4,2.2,1,3.6,1.8c1.5,0.8,2.7,1.4,3.8,1.8c1.1,0.4,2.4,0.6,3.9,0.6c2.1,0,3.5-0.3,4.3-1
		c0.8-0.6,1.2-1.6,1.2-3c0-1.3-1.4-2.6-4.1-3.8c-2.7-1.2-5.7-2.4-9-3.7c-3.3-1.3-6-3-8.2-5.2s-3.3-5-3.3-8.6c0-3.2,0.8-6,2.5-8.4
		c1.6-2.4,3.9-4.3,6.8-5.7c2.9-1.4,6.2-2,9.9-2c2.6,0,5.3,0.4,8,1.1c2.7,0.8,5,1.9,6.9,3.4C381.5,629.6,382.4,631.4,382.4,633.5z"/>
</g>
<g class="st2">
	<path d="M434.6,633.5c0,1.6-0.6,3-1.7,4.3s-2.5,1.9-4.1,1.9c-0.7,0-2.1-0.5-4.2-1.4c-2.1-0.9-3.7-1.6-4.8-2
		c-1.1-0.4-2.4-0.7-3.7-0.7c-1.4,0-2.5,0.3-3.4,1c-0.9,0.7-1.4,1.6-1.4,2.9c0,1.3,1.4,2.6,4.2,3.8s5.8,2.4,9,3.7
		c3.2,1.3,5.8,3,8.1,5.1c2.2,2.1,3.3,5,3.3,8.6c0,3.1-0.8,5.9-2.5,8.3s-4,4.4-7.1,5.8c-3.1,1.4-6.6,2.1-10.5,2.1
		c-2.8,0-5.7-0.5-8.8-1.4c-3.1-0.9-5.7-2.2-7.8-3.9c-2.1-1.7-3.2-3.5-3.2-5.4c0-1.2,0.6-2.6,1.7-4s2.6-2.1,4.4-2.1
		c1.3,0,2.4,0.2,3.4,0.6c1,0.4,2.2,1,3.6,1.8c1.5,0.8,2.7,1.4,3.8,1.8c1.1,0.4,2.4,0.6,3.9,0.6c2.1,0,3.5-0.3,4.3-1
		c0.8-0.6,1.2-1.6,1.2-3c0-1.3-1.4-2.6-4.1-3.8c-2.7-1.2-5.7-2.4-9-3.7c-3.3-1.3-6-3-8.2-5.2s-3.3-5-3.3-8.6c0-3.2,0.8-6,2.5-8.4
		c1.6-2.4,3.9-4.3,6.8-5.7c2.9-1.4,6.2-2,9.9-2c2.6,0,5.3,0.4,8,1.1c2.7,0.8,5,1.9,6.9,3.4C433.7,629.6,434.6,631.4,434.6,633.5z"/>
	<path d="M448.7,603.4c1.4,0,2.7,0.4,3.9,1.1c1.2,0.7,2.2,1.7,2.9,2.8c0.7,1.2,1.1,2.4,1.1,3.7c0,2.2-0.8,4-2.3,5.6
		c-1.6,1.6-3.4,2.4-5.6,2.4c-2.1,0-3.9-0.8-5.6-2.4c-1.6-1.6-2.4-3.5-2.4-5.5c0-2,0.8-3.7,2.4-5.3
		C444.8,604.2,446.7,603.4,448.7,603.4z M441.7,668.7v-36.9c0-2.3,0.6-4.1,1.9-5.6c1.3-1.4,3-2.1,5.1-2.1c1.4,0,2.6,0.3,3.7,1
		c1.1,0.6,1.9,1.5,2.5,2.7c0.6,1.2,0.9,2.5,0.9,4v36.9c0,1.5-0.3,2.8-0.9,4c-0.6,1.2-1.5,2.1-2.5,2.7c-1.1,0.6-2.3,1-3.7,1
		c-2.1,0-3.8-0.7-5.1-2.1C442.3,672.8,441.7,670.9,441.7,668.7z"/>
	<path d="M464.7,668.7v-36.9c0-2.3,0.6-4.1,1.9-5.6c1.3-1.4,3-2.1,5.1-2.1c1.8,0,3.3,0.5,4.4,1.4c1.1,0.9,1.8,2.2,2.1,3.8
		c3.6-3.8,8-5.8,13.2-5.8c6,0,10.8,2.3,14.7,7c1.9-2.1,4.2-3.8,7.1-5.1c2.8-1.3,5.4-1.9,7.9-1.9c3.9,0,7.3,0.7,10.2,2.1
		c2.9,1.4,5.2,3.5,6.8,6.4c1.6,2.8,2.4,6.2,2.4,10.1v26.5c0,1.5-0.3,2.8-0.9,4c-0.6,1.2-1.5,2.1-2.5,2.7s-2.3,1-3.7,1
		c-2.1,0-3.8-0.7-5.1-2.1c-1.3-1.4-1.9-3.3-1.9-5.6v-24.1c0-1.9-0.3-3.5-1-4.9c-0.7-1.4-1.6-2.5-2.9-3.3c-1.2-0.8-2.7-1.2-4.4-1.2
		c-2.6,0-4.6,0.9-6.1,2.6c-1.5,1.7-2.3,4-2.3,6.9v24.1c0,1.5-0.3,2.8-0.9,4c-0.6,1.2-1.5,2.1-2.5,2.7c-1.1,0.6-2.3,1-3.7,1
		c-2.1,0-3.8-0.7-5.1-2.1c-1.3-1.4-1.9-3.3-1.9-5.6v-24.1c0-1.9-0.3-3.5-1-4.9c-0.7-1.4-1.6-2.5-2.9-3.3c-1.2-0.8-2.7-1.2-4.4-1.2
		c-1.9,0-3.5,0.4-4.7,1.2c-1.2,0.8-2.2,1.9-2.8,3.3c-0.6,1.4-0.9,3.1-0.9,5v24.1c0,1.5-0.3,2.8-0.9,4c-0.6,1.2-1.5,2.1-2.5,2.7
		c-1.1,0.6-2.3,1-3.7,1c-2.1,0-3.8-0.7-5.1-2.1C465.4,672.8,464.7,670.9,464.7,668.7z"/>
	<path d="M549.6,689v-57.3c0-2.3,0.6-4.1,1.9-5.6c1.3-1.4,3-2.1,5.1-2.1c3.8,0,6.2,1.9,7.1,5.8c1.3-2.1,3.2-3.6,5.6-4.7
		c2.4-1.1,5-1.6,7.8-1.6c4.8,0,9,1.3,12.4,3.9c3.4,2.6,6,6,7.8,10.2c1.8,4.2,2.6,8.6,2.6,13.3c0,4.4-1,8.6-2.9,12.6
		c-1.9,4-4.7,7.3-8.3,9.7c-3.6,2.5-7.6,3.7-12.2,3.7c-2.2,0-4.5-0.4-6.8-1.2c-2.3-0.8-4.3-2-6.2-3.6v16.9c0,1.4-0.3,2.7-0.9,3.9
		c-0.6,1.2-1.5,2.1-2.5,2.7c-1.1,0.6-2.3,1-3.7,1c-2.1,0-3.8-0.7-5.1-2.1C550.2,693.2,549.6,691.4,549.6,689z M563.8,649.9
		c0,3.7,1,7.1,2.9,10c1.9,2.9,4.7,4.4,8.2,4.4c2.3,0,4.3-0.7,6-2.1c1.7-1.4,3-3.1,3.8-5.2s1.2-4.3,1.2-6.6c0-2.3-0.4-4.6-1.2-6.7
		c-0.8-2.2-2.1-3.9-3.8-5.3s-3.7-2.1-6-2.1c-2.4,0-4.4,0.7-6.1,2c-1.7,1.3-2.9,3-3.7,5C564.2,645.3,563.8,647.5,563.8,649.9z"/>
	<path d="M606.9,668.7v-59.1c0-2.3,0.6-4.1,1.9-5.6c1.3-1.4,3-2.1,5.1-2.1c1.4,0,2.6,0.3,3.7,1c1.1,0.6,1.9,1.5,2.5,2.7
		c0.6,1.2,0.9,2.5,0.9,4v59.1c0,1.5-0.3,2.8-0.9,4c-0.6,1.2-1.5,2.1-2.5,2.7c-1.1,0.6-2.3,1-3.7,1c-2.1,0-3.8-0.7-5.1-2.1
		C607.5,672.8,606.9,670.9,606.9,668.7z"/>
	<path d="M671.6,654.9h-30.2c0.5,3.3,2,5.8,4.4,7.5c2.5,1.7,5.4,2.5,8.9,2.5c2.1,0,4-0.3,5.5-1c1.5-0.7,3.4-1.6,5.6-2.8
		c2.3-1.2,3.9-1.8,4.9-1.8c1,0,1.9,0.3,2.8,0.9c0.9,0.6,1.6,1.3,2.2,2.2c0.5,0.9,0.8,1.9,0.8,2.9c0,1.4-0.7,2.9-2,4.3
		c-1.4,1.4-3.2,2.7-5.4,3.8c-2.3,1.1-4.8,2-7.6,2.7s-5.5,1-8.1,1c-5.2,0-9.8-1.1-13.8-3.4c-4.1-2.3-7.2-5.5-9.4-9.5
		c-2.2-4-3.3-8.6-3.3-13.7c0-3.4,0.6-6.8,1.9-10s3-6.1,5.3-8.7s5-4.5,8.1-5.9c3.2-1.4,6.5-2.1,10.1-2.1c3.7,0,7.1,0.7,10.3,2.2
		c3.2,1.5,5.9,3.4,8.1,5.9s3.9,5.2,5.2,8.1c1.2,3,1.9,5.9,1.9,8.9C677.8,652.8,675.7,654.9,671.6,654.9z M641,645.6h22.5
		c-0.4-3.2-1.6-5.7-3.6-7.6c-2-1.9-4.6-2.9-7.7-2.9c-3,0-5.6,1-7.6,3C642.7,640,641.5,642.5,641,645.6z"/>
</g>
<g class="st2">
	<path class="st4" d="M434.6,633.5c0,1.6-0.6,3-1.7,4.3s-2.5,1.9-4.1,1.9c-0.7,0-2.1-0.5-4.2-1.4c-2.1-0.9-3.7-1.6-4.8-2
		c-1.1-0.4-2.4-0.7-3.7-0.7c-1.4,0-2.5,0.3-3.4,1c-0.9,0.7-1.4,1.6-1.4,2.9c0,1.3,1.4,2.6,4.2,3.8s5.8,2.4,9,3.7
		c3.2,1.3,5.8,3,8.1,5.1c2.2,2.1,3.3,5,3.3,8.6c0,3.1-0.8,5.9-2.5,8.3s-4,4.4-7.1,5.8c-3.1,1.4-6.6,2.1-10.5,2.1
		c-2.8,0-5.7-0.5-8.8-1.4c-3.1-0.9-5.7-2.2-7.8-3.9c-2.1-1.7-3.2-3.5-3.2-5.4c0-1.2,0.6-2.6,1.7-4s2.6-2.1,4.4-2.1
		c1.3,0,2.4,0.2,3.4,0.6c1,0.4,2.2,1,3.6,1.8c1.5,0.8,2.7,1.4,3.8,1.8c1.1,0.4,2.4,0.6,3.9,0.6c2.1,0,3.5-0.3,4.3-1
		c0.8-0.6,1.2-1.6,1.2-3c0-1.3-1.4-2.6-4.1-3.8c-2.7-1.2-5.7-2.4-9-3.7c-3.3-1.3-6-3-8.2-5.2s-3.3-5-3.3-8.6c0-3.2,0.8-6,2.5-8.4
		c1.6-2.4,3.9-4.3,6.8-5.7c2.9-1.4,6.2-2,9.9-2c2.6,0,5.3,0.4,8,1.1c2.7,0.8,5,1.9,6.9,3.4C433.7,629.6,434.6,631.4,434.6,633.5z"/>
	<path class="st4" d="M448.7,603.4c1.4,0,2.7,0.4,3.9,1.1c1.2,0.7,2.2,1.7,2.9,2.8c0.7,1.2,1.1,2.4,1.1,3.7c0,2.2-0.8,4-2.3,5.6
		c-1.6,1.6-3.4,2.4-5.6,2.4c-2.1,0-3.9-0.8-5.6-2.4c-1.6-1.6-2.4-3.5-2.4-5.5c0-2,0.8-3.7,2.4-5.3
		C444.8,604.2,446.7,603.4,448.7,603.4z M441.7,668.7v-36.9c0-2.3,0.6-4.1,1.9-5.6c1.3-1.4,3-2.1,5.1-2.1c1.4,0,2.6,0.3,3.7,1
		c1.1,0.6,1.9,1.5,2.5,2.7c0.6,1.2,0.9,2.5,0.9,4v36.9c0,1.5-0.3,2.8-0.9,4c-0.6,1.2-1.5,2.1-2.5,2.7c-1.1,0.6-2.3,1-3.7,1
		c-2.1,0-3.8-0.7-5.1-2.1C442.3,672.8,441.7,670.9,441.7,668.7z"/>
	<path class="st4" d="M464.7,668.7v-36.9c0-2.3,0.6-4.1,1.9-5.6c1.3-1.4,3-2.1,5.1-2.1c1.8,0,3.3,0.5,4.4,1.4
		c1.1,0.9,1.8,2.2,2.1,3.8c3.6-3.8,8-5.8,13.2-5.8c6,0,10.8,2.3,14.7,7c1.9-2.1,4.2-3.8,7.1-5.1c2.8-1.3,5.4-1.9,7.9-1.9
		c3.9,0,7.3,0.7,10.2,2.1c2.9,1.4,5.2,3.5,6.8,6.4c1.6,2.8,2.4,6.2,2.4,10.1v26.5c0,1.5-0.3,2.8-0.9,4c-0.6,1.2-1.5,2.1-2.5,2.7
		s-2.3,1-3.7,1c-2.1,0-3.8-0.7-5.1-2.1c-1.3-1.4-1.9-3.3-1.9-5.6v-24.1c0-1.9-0.3-3.5-1-4.9c-0.7-1.4-1.6-2.5-2.9-3.3
		c-1.2-0.8-2.7-1.2-4.4-1.2c-2.6,0-4.6,0.9-6.1,2.6c-1.5,1.7-2.3,4-2.3,6.9v24.1c0,1.5-0.3,2.8-0.9,4c-0.6,1.2-1.5,2.1-2.5,2.7
		c-1.1,0.6-2.3,1-3.7,1c-2.1,0-3.8-0.7-5.1-2.1c-1.3-1.4-1.9-3.3-1.9-5.6v-24.1c0-1.9-0.3-3.5-1-4.9c-0.7-1.4-1.6-2.5-2.9-3.3
		c-1.2-0.8-2.7-1.2-4.4-1.2c-1.9,0-3.5,0.4-4.7,1.2c-1.2,0.8-2.2,1.9-2.8,3.3c-0.6,1.4-0.9,3.1-0.9,5v24.1c0,1.5-0.3,2.8-0.9,4
		c-0.6,1.2-1.5,2.1-2.5,2.7c-1.1,0.6-2.3,1-3.7,1c-2.1,0-3.8-0.7-5.1-2.1C465.4,672.8,464.7,670.9,464.7,668.7z"/>
	<path class="st4" d="M549.6,689v-57.3c0-2.3,0.6-4.1,1.9-5.6c1.3-1.4,3-2.1,5.1-2.1c3.8,0,6.2,1.9,7.1,5.8c1.3-2.1,3.2-3.6,5.6-4.7
		c2.4-1.1,5-1.6,7.8-1.6c4.8,0,9,1.3,12.4,3.9c3.4,2.6,6,6,7.8,10.2c1.8,4.2,2.6,8.6,2.6,13.3c0,4.4-1,8.6-2.9,12.6
		c-1.9,4-4.7,7.3-8.3,9.7c-3.6,2.5-7.6,3.7-12.2,3.7c-2.2,0-4.5-0.4-6.8-1.2c-2.3-0.8-4.3-2-6.2-3.6v16.9c0,1.4-0.3,2.7-0.9,3.9
		c-0.6,1.2-1.5,2.1-2.5,2.7c-1.1,0.6-2.3,1-3.7,1c-2.1,0-3.8-0.7-5.1-2.1C550.2,693.2,549.6,691.4,549.6,689z M563.8,649.9
		c0,3.7,1,7.1,2.9,10c1.9,2.9,4.7,4.4,8.2,4.4c2.3,0,4.3-0.7,6-2.1c1.7-1.4,3-3.1,3.8-5.2s1.2-4.3,1.2-6.6c0-2.3-0.4-4.6-1.2-6.7
		c-0.8-2.2-2.1-3.9-3.8-5.3s-3.7-2.1-6-2.1c-2.4,0-4.4,0.7-6.1,2c-1.7,1.3-2.9,3-3.7,5C564.2,645.3,563.8,647.5,563.8,649.9z"/>
	<path class="st4" d="M606.9,668.7v-59.1c0-2.3,0.6-4.1,1.9-5.6c1.3-1.4,3-2.1,5.1-2.1c1.4,0,2.6,0.3,3.7,1c1.1,0.6,1.9,1.5,2.5,2.7
		c0.6,1.2,0.9,2.5,0.9,4v59.1c0,1.5-0.3,2.8-0.9,4c-0.6,1.2-1.5,2.1-2.5,2.7c-1.1,0.6-2.3,1-3.7,1c-2.1,0-3.8-0.7-5.1-2.1
		C607.5,672.8,606.9,670.9,606.9,668.7z"/>
	<path class="st4" d="M671.6,654.9h-30.2c0.5,3.3,2,5.8,4.4,7.5c2.5,1.7,5.4,2.5,8.9,2.5c2.1,0,4-0.3,5.5-1c1.5-0.7,3.4-1.6,5.6-2.8
		c2.3-1.2,3.9-1.8,4.9-1.8c1,0,1.9,0.3,2.8,0.9c0.9,0.6,1.6,1.3,2.2,2.2c0.5,0.9,0.8,1.9,0.8,2.9c0,1.4-0.7,2.9-2,4.3
		c-1.4,1.4-3.2,2.7-5.4,3.8c-2.3,1.1-4.8,2-7.6,2.7s-5.5,1-8.1,1c-5.2,0-9.8-1.1-13.8-3.4c-4.1-2.3-7.2-5.5-9.4-9.5
		c-2.2-4-3.3-8.6-3.3-13.7c0-3.4,0.6-6.8,1.9-10s3-6.1,5.3-8.7s5-4.5,8.1-5.9c3.2-1.4,6.5-2.1,10.1-2.1c3.7,0,7.1,0.7,10.3,2.2
		c3.2,1.5,5.9,3.4,8.1,5.9s3.9,5.2,5.2,8.1c1.2,3,1.9,5.9,1.9,8.9C677.8,652.8,675.7,654.9,671.6,654.9z M641,645.6h22.5
		c-0.4-3.2-1.6-5.7-3.6-7.6c-2-1.9-4.6-2.9-7.7-2.9c-3,0-5.6,1-7.6,3C642.7,640,641.5,642.5,641,645.6z"/>
</g>
<g class="st2">
	<path d="M193.8,734.8c0,1.6-0.6,3-1.7,4.3s-2.5,1.9-4.1,1.9c-0.7,0-2.1-0.5-4.2-1.4c-2.1-0.9-3.7-1.6-4.8-2
		c-1.1-0.4-2.4-0.7-3.7-0.7c-1.4,0-2.5,0.3-3.4,1c-0.9,0.7-1.4,1.6-1.4,2.9c0,1.3,1.4,2.6,4.2,3.8c2.8,1.2,5.8,2.4,9,3.7
		c3.2,1.3,5.8,3,8.1,5.1c2.2,2.1,3.3,5,3.3,8.6c0,3.1-0.8,5.9-2.5,8.3c-1.7,2.5-4,4.4-7.1,5.8c-3.1,1.4-6.6,2.1-10.5,2.1
		c-2.8,0-5.7-0.5-8.8-1.4c-3.1-0.9-5.7-2.2-7.8-3.9s-3.2-3.5-3.2-5.4c0-1.2,0.6-2.6,1.7-4c1.1-1.4,2.6-2.1,4.4-2.1
		c1.3,0,2.4,0.2,3.4,0.6c1,0.4,2.2,1,3.6,1.8c1.5,0.8,2.7,1.4,3.8,1.8c1.1,0.4,2.4,0.6,3.9,0.6c2.1,0,3.5-0.3,4.3-1
		c0.8-0.6,1.2-1.6,1.2-3c0-1.3-1.4-2.6-4.1-3.8c-2.7-1.2-5.7-2.4-9-3.7c-3.3-1.3-6-3-8.2-5.2s-3.3-5-3.3-8.6c0-3.2,0.8-6,2.5-8.4
		c1.6-2.4,3.9-4.3,6.8-5.7c2.9-1.4,6.2-2,9.9-2c2.6,0,5.3,0.4,8,1.1c2.7,0.8,5,1.9,6.9,3.4C192.8,730.9,193.8,732.7,193.8,734.8z"/>
	<path d="M201.1,770v-59.1c0-2.3,0.6-4.1,1.9-5.6c1.3-1.4,3-2.1,5.1-2.1c1.4,0,2.6,0.3,3.7,1c1.1,0.6,1.9,1.5,2.5,2.7
		c0.6,1.2,0.9,2.5,0.9,4v18.8h0.2c1.3-1.6,3.2-2.8,5.6-3.6c2.4-0.8,4.8-1.2,7.3-1.2c3.7,0,7,0.7,10,2.2c2.9,1.5,5.3,3.6,6.9,6.4
		c1.7,2.8,2.5,6.1,2.5,10V770c0,1.5-0.3,2.8-0.9,4c-0.6,1.2-1.5,2.1-2.5,2.7c-1.1,0.6-2.3,1-3.7,1c-2.1,0-3.8-0.7-5.1-2.1
		c-1.3-1.4-1.9-3.3-1.9-5.6v-24.1c0-3.1-0.9-5.4-2.6-7.1c-1.7-1.6-3.9-2.4-6.7-2.4c-1.9,0-3.5,0.4-4.9,1.2c-1.4,0.8-2.4,1.9-3.1,3.4
		c-0.7,1.4-1.1,3-1.1,4.9V770c0,1.5-0.3,2.8-0.9,4c-0.6,1.2-1.5,2.1-2.5,2.7c-1.1,0.6-2.3,1-3.7,1c-2.1,0-3.8-0.7-5.1-2.1
		C201.7,774.1,201.1,772.2,201.1,770z"/>
	<path d="M280.1,724.9c3.7,0,7.1,0.7,10.2,2.2c3.2,1.5,5.9,3.4,8.1,5.9c2.3,2.5,4,5.3,5.2,8.5c1.2,3.2,1.9,6.6,1.9,10.1
		c0,3.6-0.6,7-1.9,10.2c-1.2,3.2-2.9,6.1-5.1,8.5c-2.2,2.4-4.9,4.3-8.1,5.8c-3.2,1.4-6.6,2.1-10.4,2.1c-4.9,0-9.3-1.2-13.2-3.6
		c-3.9-2.4-6.9-5.6-9-9.7s-3.2-8.5-3.2-13.3c0-3.4,0.6-6.8,1.9-10c1.2-3.2,3-6.1,5.3-8.7c2.3-2.5,5-4.5,8.1-6
		C273.1,725.6,276.5,724.9,280.1,724.9z M280.1,737.5c-2.4,0-4.4,0.7-6.1,2c-1.7,1.4-3,3.1-3.8,5.3c-0.8,2.2-1.2,4.4-1.2,6.8
		c0,2.3,0.4,4.6,1.3,6.7c0.8,2.1,2.1,3.9,3.8,5.2c1.7,1.3,3.7,2,6.1,2c2.4,0,4.5-0.7,6.2-2c1.7-1.3,2.9-3.1,3.8-5.2
		c0.8-2.1,1.3-4.4,1.3-6.7c0-2.3-0.4-4.6-1.2-6.7c-0.8-2.2-2.1-4-3.8-5.3C284.6,738.2,282.5,737.5,280.1,737.5z"/>
</g>
<g class="st2">
	<path class="st4" d="M193.8,734.8c0,1.6-0.6,3-1.7,4.3s-2.5,1.9-4.1,1.9c-0.7,0-2.1-0.5-4.2-1.4c-2.1-0.9-3.7-1.6-4.8-2
		c-1.1-0.4-2.4-0.7-3.7-0.7c-1.4,0-2.5,0.3-3.4,1c-0.9,0.7-1.4,1.6-1.4,2.9c0,1.3,1.4,2.6,4.2,3.8c2.8,1.2,5.8,2.4,9,3.7
		c3.2,1.3,5.8,3,8.1,5.1c2.2,2.1,3.3,5,3.3,8.6c0,3.1-0.8,5.9-2.5,8.3c-1.7,2.5-4,4.4-7.1,5.8c-3.1,1.4-6.6,2.1-10.5,2.1
		c-2.8,0-5.7-0.5-8.8-1.4c-3.1-0.9-5.7-2.2-7.8-3.9s-3.2-3.5-3.2-5.4c0-1.2,0.6-2.6,1.7-4c1.1-1.4,2.6-2.1,4.4-2.1
		c1.3,0,2.4,0.2,3.4,0.6c1,0.4,2.2,1,3.6,1.8c1.5,0.8,2.7,1.4,3.8,1.8c1.1,0.4,2.4,0.6,3.9,0.6c2.1,0,3.5-0.3,4.3-1
		c0.8-0.6,1.2-1.6,1.2-3c0-1.3-1.4-2.6-4.1-3.8c-2.7-1.2-5.7-2.4-9-3.7c-3.3-1.3-6-3-8.2-5.2s-3.3-5-3.3-8.6c0-3.2,0.8-6,2.5-8.4
		c1.6-2.4,3.9-4.3,6.8-5.7c2.9-1.4,6.2-2,9.9-2c2.6,0,5.3,0.4,8,1.1c2.7,0.8,5,1.9,6.9,3.4C192.8,730.9,193.8,732.7,193.8,734.8z"/>
	<path class="st4" d="M201.1,770v-59.1c0-2.3,0.6-4.1,1.9-5.6c1.3-1.4,3-2.1,5.1-2.1c1.4,0,2.6,0.3,3.7,1c1.1,0.6,1.9,1.5,2.5,2.7
		c0.6,1.2,0.9,2.5,0.9,4v18.8h0.2c1.3-1.6,3.2-2.8,5.6-3.6c2.4-0.8,4.8-1.2,7.3-1.2c3.7,0,7,0.7,10,2.2c2.9,1.5,5.3,3.6,6.9,6.4
		c1.7,2.8,2.5,6.1,2.5,10V770c0,1.5-0.3,2.8-0.9,4c-0.6,1.2-1.5,2.1-2.5,2.7c-1.1,0.6-2.3,1-3.7,1c-2.1,0-3.8-0.7-5.1-2.1
		c-1.3-1.4-1.9-3.3-1.9-5.6v-24.1c0-3.1-0.9-5.4-2.6-7.1c-1.7-1.6-3.9-2.4-6.7-2.4c-1.9,0-3.5,0.4-4.9,1.2c-1.4,0.8-2.4,1.9-3.1,3.4
		c-0.7,1.4-1.1,3-1.1,4.9V770c0,1.5-0.3,2.8-0.9,4c-0.6,1.2-1.5,2.1-2.5,2.7c-1.1,0.6-2.3,1-3.7,1c-2.1,0-3.8-0.7-5.1-2.1
		C201.7,774.1,201.1,772.2,201.1,770z"/>
	<path class="st4" d="M280.1,724.9c3.7,0,7.1,0.7,10.2,2.2c3.2,1.5,5.9,3.4,8.1,5.9c2.3,2.5,4,5.3,5.2,8.5c1.2,3.2,1.9,6.6,1.9,10.1
		c0,3.6-0.6,7-1.9,10.2c-1.2,3.2-2.9,6.1-5.1,8.5c-2.2,2.4-4.9,4.3-8.1,5.8c-3.2,1.4-6.6,2.1-10.4,2.1c-4.9,0-9.3-1.2-13.2-3.6
		c-3.9-2.4-6.9-5.6-9-9.7s-3.2-8.5-3.2-13.3c0-3.4,0.6-6.8,1.9-10c1.2-3.2,3-6.1,5.3-8.7c2.3-2.5,5-4.5,8.1-6
		C273.1,725.6,276.5,724.9,280.1,724.9z M280.1,737.5c-2.4,0-4.4,0.7-6.1,2c-1.7,1.4-3,3.1-3.8,5.3c-0.8,2.2-1.2,4.4-1.2,6.8
		c0,2.3,0.4,4.6,1.3,6.7c0.8,2.1,2.1,3.9,3.8,5.2c1.7,1.3,3.7,2,6.1,2c2.4,0,4.5-0.7,6.2-2c1.7-1.3,2.9-3.1,3.8-5.2
		c0.8-2.1,1.3-4.4,1.3-6.7c0-2.3-0.4-4.6-1.2-6.7c-0.8-2.2-2.1-4-3.8-5.3C284.6,738.2,282.5,737.5,280.1,737.5z"/>
</g>
<g class="st2">
	<path d="M315.3,770v-37.6c0-2.2,0.7-3.9,2.2-5.1c1.5-1.2,3.1-1.8,5.1-1.8c4.6,0,6.9,1.9,6.9,5.8h0.2c1.4-2,2.9-3.5,4.4-4.4
		c1.5-0.9,3.3-1.4,5.5-1.4c1.8,0,3.4,0.6,4.8,1.9c1.4,1.3,2.1,3.1,2.1,5.5c0,1.4-0.4,2.4-1.1,3.1c-0.7,0.7-1.7,1.3-3,1.8
		c-1.2,0.5-2.7,1.1-4.4,1.7c-2.8,1.3-5,2.5-6.4,3.7c-1.4,1.2-2.2,3.1-2.2,5.5V770c0,1.5-0.3,2.8-0.9,4c-0.6,1.2-1.5,2.1-2.5,2.7
		c-1.1,0.6-2.3,1-3.7,1c-2.1,0-3.8-0.7-5.1-2.1C316,774.1,315.3,772.2,315.3,770z"/>
</g>
<g class="st2">
	<path class="st4" d="M315.3,770v-37.6c0-2.2,0.7-3.9,2.2-5.1c1.5-1.2,3.1-1.8,5.1-1.8c4.6,0,6.9,1.9,6.9,5.8h0.2
		c1.4-2,2.9-3.5,4.4-4.4c1.5-0.9,3.3-1.4,5.5-1.4c1.8,0,3.4,0.6,4.8,1.9c1.4,1.3,2.1,3.1,2.1,5.5c0,1.4-0.4,2.4-1.1,3.1
		c-0.7,0.7-1.7,1.3-3,1.8c-1.2,0.5-2.7,1.1-4.4,1.7c-2.8,1.3-5,2.5-6.4,3.7c-1.4,1.2-2.2,3.1-2.2,5.5V770c0,1.5-0.3,2.8-0.9,4
		c-0.6,1.2-1.5,2.1-2.5,2.7c-1.1,0.6-2.3,1-3.7,1c-2.1,0-3.8-0.7-5.1-2.1C316,774.1,315.3,772.2,315.3,770z"/>
</g>
<g class="st2">
	<path d="M360.4,770v-31.9h-3.2c-1.9,0-3.4-0.6-4.5-1.7c-1.1-1.1-1.7-2.6-1.7-4.4c0-1.7,0.6-3.1,1.8-4.3c1.2-1.2,2.7-1.7,4.4-1.7
		h3.2v-8.3c0-2.3,0.6-4.1,1.9-5.6c1.3-1.4,3-2.1,5.1-2.1c1.4,0,2.6,0.3,3.7,1c1.1,0.6,1.9,1.5,2.5,2.7c0.6,1.2,0.9,2.5,0.9,4v8.3h4
		c2,0,3.6,0.5,4.9,1.5c1.3,1,1.9,2.5,1.9,4.6c0,2.1-0.6,3.6-1.9,4.6c-1.3,1-2.9,1.5-4.9,1.5h-4V770c0,1.5-0.3,2.8-0.9,4
		c-0.6,1.2-1.5,2.1-2.5,2.7c-1.1,0.6-2.3,1-3.7,1c-2.1,0-3.8-0.7-5.1-2.1C361,774.1,360.4,772.2,360.4,770z"/>
</g>
<g class="st2">
	<path class="st4" d="M360.4,770v-31.9h-3.2c-1.9,0-3.4-0.6-4.5-1.7c-1.1-1.1-1.7-2.6-1.7-4.4c0-1.7,0.6-3.1,1.8-4.3
		c1.2-1.2,2.7-1.7,4.4-1.7h3.2v-8.3c0-2.3,0.6-4.1,1.9-5.6c1.3-1.4,3-2.1,5.1-2.1c1.4,0,2.6,0.3,3.7,1c1.1,0.6,1.9,1.5,2.5,2.7
		c0.6,1.2,0.9,2.5,0.9,4v8.3h4c2,0,3.6,0.5,4.9,1.5c1.3,1,1.9,2.5,1.9,4.6c0,2.1-0.6,3.6-1.9,4.6c-1.3,1-2.9,1.5-4.9,1.5h-4V770
		c0,1.5-0.3,2.8-0.9,4c-0.6,1.2-1.5,2.1-2.5,2.7c-1.1,0.6-2.3,1-3.7,1c-2.1,0-3.8-0.7-5.1-2.1C361,774.1,360.4,772.2,360.4,770z"/>
</g>
<g class="st2">
	<path class="st0" d="M436,733.6c0,1.6-0.5,3.1-1.5,4.5c-1,1.4-2.3,2.2-3.9,2.2c-1,0-2.7-0.5-5.1-1.4c-2.4-0.9-4.4-1.4-6.1-1.4
		c-2.5,0-4.7,0.7-6.5,2c-1.8,1.3-3.2,3.1-4.1,5.2c-0.9,2.2-1.3,4.5-1.3,6.9c0,3.7,1.1,6.9,3.2,9.7c2.1,2.8,5,4.2,8.7,4.2
		c1,0,2.1-0.2,3.2-0.5c1.2-0.4,2.6-0.8,4.2-1.4c1.6-0.6,2.7-0.9,3.1-0.9c1.1,0,2.1,0.3,3,0.8c0.9,0.5,1.7,1.3,2.2,2.2
		c0.6,0.9,0.8,1.9,0.8,3c0,2.2-1,3.9-3.1,5.4c-2,1.4-4.4,2.5-7.2,3.1s-5.1,1-7.1,1c-4.9,0-9.3-1.2-13.2-3.6c-3.9-2.4-6.9-5.6-9-9.7
		c-2.1-4.1-3.2-8.5-3.2-13.3c0-3.4,0.6-6.8,1.9-10c1.2-3.2,3-6.1,5.3-8.7c2.3-2.5,5-4.5,8.1-6c3.1-1.4,6.5-2.2,10.1-2.2
		c2.2,0,4.6,0.3,7.4,0.9c2.7,0.6,5.1,1.5,7,2.8C435,729.8,436,731.5,436,733.6z"/>
	<path class="st0" d="M465.2,724.9c3.7,0,7.1,0.7,10.2,2.2c3.2,1.5,5.9,3.4,8.1,5.9s4,5.3,5.2,8.5c1.2,3.2,1.9,6.6,1.9,10.1
		c0,3.6-0.6,7-1.9,10.2c-1.2,3.2-2.9,6.1-5.1,8.5c-2.2,2.4-4.9,4.3-8.1,5.8c-3.2,1.4-6.6,2.1-10.4,2.1c-4.9,0-9.3-1.2-13.2-3.6
		c-3.9-2.4-6.9-5.6-9-9.7c-2.1-4.1-3.2-8.5-3.2-13.3c0-3.4,0.6-6.8,1.9-10c1.2-3.2,3-6.1,5.3-8.7c2.3-2.5,5-4.5,8.1-6
		C458.2,725.6,461.6,724.9,465.2,724.9z M465.2,737.5c-2.4,0-4.4,0.7-6.1,2c-1.7,1.4-3,3.1-3.8,5.3c-0.8,2.2-1.2,4.4-1.2,6.8
		c0,2.3,0.4,4.6,1.3,6.7c0.8,2.1,2.1,3.9,3.8,5.2c1.7,1.3,3.7,2,6.1,2c2.4,0,4.5-0.7,6.2-2c1.7-1.3,2.9-3.1,3.8-5.2
		c0.8-2.1,1.3-4.4,1.3-6.7c0-2.3-0.4-4.6-1.2-6.7c-0.8-2.2-2.1-4-3.8-5.3C469.7,738.2,467.7,737.5,465.2,737.5z"/>
	<path class="st0" d="M546.1,710.8V770c0,1.5-0.3,2.8-0.9,4s-1.5,2.1-2.5,2.7c-1.1,0.6-2.3,1-3.7,1c-3.8,0-6.2-1.9-7.1-5.7
		c-1.3,2-3.2,3.6-5.6,4.7c-2.4,1.1-4.9,1.7-7.5,1.7c-4.5,0-8.6-1.2-12.1-3.7c-3.6-2.5-6.3-5.7-8.3-9.8s-2.9-8.2-2.9-12.6
		c0-4.7,0.9-9.1,2.6-13.3c1.7-4.2,4.3-7.6,7.8-10.2c3.5-2.6,7.6-3.9,12.4-3.9c1.6,0,3.2,0.2,4.8,0.5c1.6,0.4,3.1,0.9,4.6,1.6
		c1.4,0.7,2.8,1.6,4.1,2.7v-18.8c0-2.3,0.6-4.1,1.9-5.6c1.3-1.4,3-2.1,5.1-2.1c1.4,0,2.6,0.3,3.7,1c1.1,0.6,1.9,1.5,2.5,2.7
		C545.8,708,546.1,709.3,546.1,710.8z M531.9,751.2c0-3.7-1-6.9-2.9-9.6c-1.9-2.7-4.7-4-8.2-4c-2.3,0-4.3,0.7-6,2.1
		c-1.7,1.4-2.9,3.2-3.8,5.3c-0.8,2.2-1.2,4.4-1.2,6.7c0,1.6,0.2,3.2,0.7,4.9c0.5,1.7,1.2,3.2,2.1,4.6c0.9,1.4,2.1,2.4,3.5,3.2
		c1.4,0.8,3,1.2,4.7,1.2c2.4,0,4.5-0.7,6.2-2.1s3-3.2,3.8-5.5C531.5,755.8,531.9,753.5,531.9,751.2z"/>
	<path class="st0" d="M596.8,756.2h-30.2c0.5,3.3,2,5.8,4.4,7.5c2.5,1.7,5.4,2.5,8.9,2.5c2.1,0,4-0.3,5.5-1c1.5-0.7,3.4-1.6,5.6-2.8
		c2.3-1.2,3.9-1.8,4.9-1.8c1,0,1.9,0.3,2.8,0.9c0.9,0.6,1.6,1.3,2.2,2.2c0.5,0.9,0.8,1.9,0.8,2.9c0,1.4-0.7,2.9-2,4.3
		c-1.4,1.4-3.2,2.7-5.4,3.8c-2.3,1.1-4.8,2-7.6,2.7s-5.5,1-8.1,1c-5.2,0-9.8-1.1-13.8-3.4c-4.1-2.3-7.2-5.5-9.4-9.5
		c-2.2-4-3.3-8.6-3.3-13.7c0-3.4,0.6-6.8,1.9-10s3-6.1,5.3-8.7s5-4.5,8.1-5.9c3.2-1.4,6.5-2.1,10.1-2.1c3.7,0,7.1,0.7,10.3,2.2
		c3.2,1.5,5.9,3.4,8.1,5.9s3.9,5.2,5.2,8.1c1.2,3,1.9,5.9,1.9,8.9C603,754.1,600.9,756.2,596.8,756.2z M566.2,746.9h22.5
		c-0.4-3.2-1.6-5.7-3.6-7.6c-2-1.9-4.6-2.9-7.7-2.9c-3,0-5.6,1-7.6,3C567.9,741.3,566.7,743.8,566.2,746.9z"/>
	<path class="st0" d="M644.6,734.8c0,1.6-0.6,3-1.7,4.3s-2.5,1.9-4.1,1.9c-0.7,0-2.1-0.5-4.2-1.4c-2.1-0.9-3.7-1.6-4.8-2
		c-1.1-0.4-2.4-0.7-3.7-0.7c-1.4,0-2.5,0.3-3.4,1c-0.9,0.7-1.4,1.6-1.4,2.9c0,1.3,1.4,2.6,4.2,3.8s5.8,2.4,9,3.7
		c3.2,1.3,5.8,3,8.1,5.1c2.2,2.1,3.3,5,3.3,8.6c0,3.1-0.8,5.9-2.5,8.3s-4,4.4-7.1,5.8c-3.1,1.4-6.6,2.1-10.5,2.1
		c-2.8,0-5.7-0.5-8.8-1.4c-3.1-0.9-5.7-2.2-7.8-3.9c-2.1-1.7-3.2-3.5-3.2-5.4c0-1.2,0.6-2.6,1.7-4s2.6-2.1,4.4-2.1
		c1.3,0,2.4,0.2,3.4,0.6c1,0.4,2.2,1,3.6,1.8c1.5,0.8,2.7,1.4,3.8,1.8c1.1,0.4,2.4,0.6,3.9,0.6c2.1,0,3.5-0.3,4.3-1
		c0.8-0.6,1.2-1.6,1.2-3c0-1.3-1.4-2.6-4.1-3.8c-2.7-1.2-5.7-2.4-9-3.7c-3.3-1.3-6-3-8.2-5.2s-3.3-5-3.3-8.6c0-3.2,0.8-6,2.5-8.4
		c1.6-2.4,3.9-4.3,6.8-5.7c2.9-1.4,6.2-2,9.9-2c2.6,0,5.3,0.4,8,1.1c2.7,0.8,5,1.9,6.9,3.4C643.7,730.9,644.6,732.7,644.6,734.8z"/>
</g>
<g class="st2">
	<path class="st3" d="M436,733.6c0,1.6-0.5,3.1-1.5,4.5c-1,1.4-2.3,2.2-3.9,2.2c-1,0-2.7-0.5-5.1-1.4c-2.4-0.9-4.4-1.4-6.1-1.4
		c-2.5,0-4.7,0.7-6.5,2c-1.8,1.3-3.2,3.1-4.1,5.2c-0.9,2.2-1.3,4.5-1.3,6.9c0,3.7,1.1,6.9,3.2,9.7c2.1,2.8,5,4.2,8.7,4.2
		c1,0,2.1-0.2,3.2-0.5c1.2-0.4,2.6-0.8,4.2-1.4c1.6-0.6,2.7-0.9,3.1-0.9c1.1,0,2.1,0.3,3,0.8c0.9,0.5,1.7,1.3,2.2,2.2
		c0.6,0.9,0.8,1.9,0.8,3c0,2.2-1,3.9-3.1,5.4c-2,1.4-4.4,2.5-7.2,3.1s-5.1,1-7.1,1c-4.9,0-9.3-1.2-13.2-3.6c-3.9-2.4-6.9-5.6-9-9.7
		c-2.1-4.1-3.2-8.5-3.2-13.3c0-3.4,0.6-6.8,1.9-10c1.2-3.2,3-6.1,5.3-8.7c2.3-2.5,5-4.5,8.1-6c3.1-1.4,6.5-2.2,10.1-2.2
		c2.2,0,4.6,0.3,7.4,0.9c2.7,0.6,5.1,1.5,7,2.8C435,729.8,436,731.5,436,733.6z"/>
	<path class="st3" d="M465.2,724.9c3.7,0,7.1,0.7,10.2,2.2c3.2,1.5,5.9,3.4,8.1,5.9s4,5.3,5.2,8.5c1.2,3.2,1.9,6.6,1.9,10.1
		c0,3.6-0.6,7-1.9,10.2c-1.2,3.2-2.9,6.1-5.1,8.5c-2.2,2.4-4.9,4.3-8.1,5.8c-3.2,1.4-6.6,2.1-10.4,2.1c-4.9,0-9.3-1.2-13.2-3.6
		c-3.9-2.4-6.9-5.6-9-9.7c-2.1-4.1-3.2-8.5-3.2-13.3c0-3.4,0.6-6.8,1.9-10c1.2-3.2,3-6.1,5.3-8.7c2.3-2.5,5-4.5,8.1-6
		C458.2,725.6,461.6,724.9,465.2,724.9z M465.2,737.5c-2.4,0-4.4,0.7-6.1,2c-1.7,1.4-3,3.1-3.8,5.3c-0.8,2.2-1.2,4.4-1.2,6.8
		c0,2.3,0.4,4.6,1.3,6.7c0.8,2.1,2.1,3.9,3.8,5.2c1.7,1.3,3.7,2,6.1,2c2.4,0,4.5-0.7,6.2-2c1.7-1.3,2.9-3.1,3.8-5.2
		c0.8-2.1,1.3-4.4,1.3-6.7c0-2.3-0.4-4.6-1.2-6.7c-0.8-2.2-2.1-4-3.8-5.3C469.7,738.2,467.7,737.5,465.2,737.5z"/>
	<path class="st3" d="M546.1,710.8V770c0,1.5-0.3,2.8-0.9,4s-1.5,2.1-2.5,2.7c-1.1,0.6-2.3,1-3.7,1c-3.8,0-6.2-1.9-7.1-5.7
		c-1.3,2-3.2,3.6-5.6,4.7c-2.4,1.1-4.9,1.7-7.5,1.7c-4.5,0-8.6-1.2-12.1-3.7c-3.6-2.5-6.3-5.7-8.3-9.8s-2.9-8.2-2.9-12.6
		c0-4.7,0.9-9.1,2.6-13.3c1.7-4.2,4.3-7.6,7.8-10.2c3.5-2.6,7.6-3.9,12.4-3.9c1.6,0,3.2,0.2,4.8,0.5c1.6,0.4,3.1,0.9,4.6,1.6
		c1.4,0.7,2.8,1.6,4.1,2.7v-18.8c0-2.3,0.6-4.1,1.9-5.6c1.3-1.4,3-2.1,5.1-2.1c1.4,0,2.6,0.3,3.7,1c1.1,0.6,1.9,1.5,2.5,2.7
		C545.8,708,546.1,709.3,546.1,710.8z M531.9,751.2c0-3.7-1-6.9-2.9-9.6c-1.9-2.7-4.7-4-8.2-4c-2.3,0-4.3,0.7-6,2.1
		c-1.7,1.4-2.9,3.2-3.8,5.3c-0.8,2.2-1.2,4.4-1.2,6.7c0,1.6,0.2,3.2,0.7,4.9c0.5,1.7,1.2,3.2,2.1,4.6c0.9,1.4,2.1,2.4,3.5,3.2
		c1.4,0.8,3,1.2,4.7,1.2c2.4,0,4.5-0.7,6.2-2.1s3-3.2,3.8-5.5C531.5,755.8,531.9,753.5,531.9,751.2z"/>
	<path class="st3" d="M596.8,756.2h-30.2c0.5,3.3,2,5.8,4.4,7.5c2.5,1.7,5.4,2.5,8.9,2.5c2.1,0,4-0.3,5.5-1c1.5-0.7,3.4-1.6,5.6-2.8
		c2.3-1.2,3.9-1.8,4.9-1.8c1,0,1.9,0.3,2.8,0.9c0.9,0.6,1.6,1.3,2.2,2.2c0.5,0.9,0.8,1.9,0.8,2.9c0,1.4-0.7,2.9-2,4.3
		c-1.4,1.4-3.2,2.7-5.4,3.8c-2.3,1.1-4.8,2-7.6,2.7s-5.5,1-8.1,1c-5.2,0-9.8-1.1-13.8-3.4c-4.1-2.3-7.2-5.5-9.4-9.5
		c-2.2-4-3.3-8.6-3.3-13.7c0-3.4,0.6-6.8,1.9-10s3-6.1,5.3-8.7s5-4.5,8.1-5.9c3.2-1.4,6.5-2.1,10.1-2.1c3.7,0,7.1,0.7,10.3,2.2
		c3.2,1.5,5.9,3.4,8.1,5.9s3.9,5.2,5.2,8.1c1.2,3,1.9,5.9,1.9,8.9C603,754.1,600.9,756.2,596.8,756.2z M566.2,746.9h22.5
		c-0.4-3.2-1.6-5.7-3.6-7.6c-2-1.9-4.6-2.9-7.7-2.9c-3,0-5.6,1-7.6,3C567.9,741.3,566.7,743.8,566.2,746.9z"/>
	<path class="st3" d="M644.6,734.8c0,1.6-0.6,3-1.7,4.3s-2.5,1.9-4.1,1.9c-0.7,0-2.1-0.5-4.2-1.4c-2.1-0.9-3.7-1.6-4.8-2
		c-1.1-0.4-2.4-0.7-3.7-0.7c-1.4,0-2.5,0.3-3.4,1c-0.9,0.7-1.4,1.6-1.4,2.9c0,1.3,1.4,2.6,4.2,3.8s5.8,2.4,9,3.7
		c3.2,1.3,5.8,3,8.1,5.1c2.2,2.1,3.3,5,3.3,8.6c0,3.1-0.8,5.9-2.5,8.3s-4,4.4-7.1,5.8c-3.1,1.4-6.6,2.1-10.5,2.1
		c-2.8,0-5.7-0.5-8.8-1.4c-3.1-0.9-5.7-2.2-7.8-3.9c-2.1-1.7-3.2-3.5-3.2-5.4c0-1.2,0.6-2.6,1.7-4s2.6-2.1,4.4-2.1
		c1.3,0,2.4,0.2,3.4,0.6c1,0.4,2.2,1,3.6,1.8c1.5,0.8,2.7,1.4,3.8,1.8c1.1,0.4,2.4,0.6,3.9,0.6c2.1,0,3.5-0.3,4.3-1
		c0.8-0.6,1.2-1.6,1.2-3c0-1.3-1.4-2.6-4.1-3.8c-2.7-1.2-5.7-2.4-9-3.7c-3.3-1.3-6-3-8.2-5.2s-3.3-5-3.3-8.6c0-3.2,0.8-6,2.5-8.4
		c1.6-2.4,3.9-4.3,6.8-5.7c2.9-1.4,6.2-2,9.9-2c2.6,0,5.3,0.4,8,1.1c2.7,0.8,5,1.9,6.9,3.4C643.7,730.9,644.6,732.7,644.6,734.8z"/>
</g>
</svg>
